<?xml version="1.0" encoding="utf-8"?>
<!-- Generator: Adobe Illustrator 16.0.0, SVG Export Plug-In . SVG Version: 6.00 Build 0)  -->
<!DOCTYPE svg PUBLIC "-//W3C//DTD SVG 1.1//EN" "http://www.w3.org/Graphics/SVG/1.1/DTD/svg11.dtd">
<svg version="1.1" id="Layer_1" xmlns="http://www.w3.org/2000/svg" xmlns:xlink="http://www.w3.org/1999/xlink" x="0px" y="0px"
	 width="635px" height="80px" viewBox="0 0 635 80" enable-background="new 0 0 635 80" xml:space="preserve">
<g>
	<path d="M-0.208,40.089C-0.208,16.268,17.339,0,39.649,0C53.362,0,62.89,6.507,69.049,15.338l-8.019,4.532
		C56.615,13.247,48.481,8.599,39.649,8.599c-16.965,0-29.864,12.898-29.864,31.49c0,18.36,12.898,31.491,29.864,31.491
		c8.832,0,16.966-4.765,21.381-11.271l8.135,4.416c-6.508,8.947-15.803,15.453-29.516,15.453
		C17.339,80.178-0.208,63.91-0.208,40.089z"/>
	<path d="M126.331,78.784l-19.638-30.793H91.122v30.793h-9.645V1.278h31.142c14.176,0,24.402,9.064,24.402,23.356
		c0,13.944-9.646,21.614-20.219,22.543l20.916,31.606H126.331z M127.028,24.634c0-8.831-6.391-14.758-15.57-14.758H91.122v29.632
		h20.336C120.637,39.508,127.028,33.35,127.028,24.634z"/>
	<path d="M172.923,78.784V46.016L142.362,1.278h11.271l24.054,36.023l24.054-36.023h11.271l-30.445,44.738v32.769H172.923z"/>
	<path d="M223.117,78.784V1.278h31.142c15.571,0,24.286,10.69,24.286,23.356c0,12.667-8.832,23.357-24.286,23.357h-21.498v30.793
		H223.117z M268.552,24.634c0-8.715-6.275-14.758-15.455-14.758h-20.335v29.516h20.335C262.277,39.393,268.552,33.35,268.552,24.634
		z"/>
	<path d="M310.494,78.784V9.876h-24.518V1.278h58.797v8.599H320.14v68.908H310.494z"/>
	<path d="M351.277,40.089C351.277,17.197,366.848,0,389.739,0s38.579,17.197,38.579,40.089s-15.688,40.089-38.579,40.089
		S351.277,62.98,351.277,40.089z M418.325,40.089c0-18.127-11.27-31.49-28.586-31.49c-17.431,0-28.469,13.363-28.469,31.49
		c0,18.012,11.038,31.491,28.469,31.491C407.056,71.58,418.325,58.101,418.325,40.089z"/>
	<path fill="#029EE4" d="M443.304,78.784V1.278h31.141c15.571,0,24.287,10.69,24.287,23.356c0,12.667-8.831,23.357-24.287,23.357
		h-21.496v30.793H443.304z M488.738,24.634c0-8.715-6.275-14.758-15.456-14.758h-20.334v29.516h20.334
		C482.463,39.393,488.738,33.35,488.738,24.634z"/>
	<path fill="#029EE4" d="M557.874,78.784l-6.856-17.313h-38.579l-6.854,17.313h-11.04l31.259-77.506h11.968l31.142,77.506H557.874z
		 M531.728,11.155l-16.383,41.832h32.885L531.728,11.155z"/>
	<path fill="#029EE4" d="M594.24,78.784V46.016L563.679,1.278h11.272l24.054,36.023l24.054-36.023h11.271l-30.444,44.738v32.769
		H594.24z"/>
</g>
</svg>
